SplineFontDB: 3.0
FontName: FNCP7-Bold
FullName: FNCP7 Bold
FamilyName: FNCP7
Weight: Bold
Copyright: Copyright (c) 2015, Earnest
UComments: "2015-1-3: Created with FontForge (http://fontforge.org)"
Version: 0.1.0
ItalicAngle: 0
UnderlinePosition: -100
UnderlineWidth: 50
Ascent: 800
Descent: 200
InvalidEm: 0
LayerCount: 2
Layer: 0 0 "Back" 1
Layer: 1 0 "Fore" 0
XUID: [1021 85 1219794769 15648925]
FSType: 0
OS2Version: 0
OS2_WeightWidthSlopeOnly: 0
OS2_UseTypoMetrics: 1
CreationTime: 1420314734
ModificationTime: 1420565337
PfmFamily: 49
TTFWeight: 700
TTFWidth: 5
LineGap: 200
VLineGap: 0
OS2TypoAscent: 800
OS2TypoAOffset: 0
OS2TypoDescent: -220
OS2TypoDOffset: 0
OS2TypoLinegap: 200
OS2WinAscent: 800
OS2WinAOffset: 0
OS2WinDescent: -220
OS2WinDOffset: 0
HheadAscent: 800
HheadAOffset: 0
HheadDescent: -220
HheadDOffset: 0
OS2CapHeight: 0
OS2XHeight: 0
OS2Vendor: 'PfEd'
MarkAttachClasses: 1
DEI: 91125
LangName: 1033
Encoding: UnicodeFull
UnicodeInterp: none
NameList: Adobe Glyph List
DisplaySize: -36
AntiAlias: 1
FitToEm: 1
ExtremaBound: 30
WinInfo: 0 38 14
BeginPrivate: 10
BlueValues 38 [-5 0 240 245 360 365 480 485 660 665]
OtherBlues 11 [-260 -260]
FamilyBlues 38 [-7 0 240 250 360 370 480 490 660 670]
FamilyOtherBlues 11 [-260 -260]
BlueShift 1 1
StdHW 4 [60]
StdVW 4 [60]
StemSnapH 12 [60 128 232]
StemSnapV 8 [60 128]
BlueScale 10 0.04795833
EndPrivate
Grid
0 720 m 0
 500 720 l 1024
  Named: "720 W"
480 800 m 0
 480 -200 l 1024
  Named: "480 W"
420 800 m 0
 420 -200 l 1024
  Named: "420 W"
0 -80 m 0
 500 -80 l 1024
  Named: "-80"
0 -140 m 0
 500 -140 l 1024
  Named: "-140"
0 -260 m 0
 500 -260 l 1024
  Named: "-260"
0 -200 m 0
 500 -200 l 1024
  Named: "-200"
0 660 m 0
 500 660 l 1024
  Named: "660"
0 600 m 0
 500 600 l 1024
  Named: "600"
0 540 m 0
 500 540 l 1024
  Named: "540"
0 480 m 0
 500 480 l 1024
  Named: "480"
0 420 m 0
 500 420 l 1024
  Named: "420"
0 360 m 0
 500 360 l 1024
  Named: "360"
0 300 m 0
 500 300 l 1024
  Named: "300"
0 240 m 0
 500 240 l 1024

StartChar: a
Encoding: 97 97 0
Width: 500
VWidth: 0
Flags: W
HStem: 0 80<172.351 327.649> 400 80<172.351 327.649>
VStem: 62 76<117.612 362.388> 362 76<0 29 115.711 364.289 451 480>
LayerCount: 2
Back
Fore
SplineSet
138 184 m 2
 138 126 178 80 220 80 c 0
 280 80 l 0
 322 80 362 126 362 184 c 0
 362 296 l 0
 362 354 322 400 280 400 c 0
 220 400 l 0
 178 400 138 354 138 296 c 0
 138 184 l 2
362 480 m 1
 438 480 l 1
 438 0 l 1
 362 0 l 1
 362 29 l 1
 339 11 308 0 280 0 c 0
 220 0 l 0
 129 0 62 85 62 184 c 0
 62 296 l 0
 62 395 129 480 220 480 c 0
 280 480 l 0
 309 480 341 467 362 451 c 1
 362 480 l 1
EndSplineSet
Validated: 1
EndChar

StartChar: A
Encoding: 65 65 1
Width: 496
VWidth: 0
Flags: W
HStem: 0 21G<56 140.625 356.375 440> 160 80<192 305> 640 20G<205.333 290.667>
DStem2: 56 0 136 0 0.22723 0.973841<18.1784 182.4 264.625 514.221> 286 660 249 483 0.22723 -0.973841<163.962 413.331 495.555 659.777>
LayerCount: 2
Back
Fore
SplineSet
56 0 m 1
 210 660 l 1
 286 660 l 1
 440 0 l 1
 361 0 l 1
 324 160 l 1
 173 160 l 1
 136 0 l 1
 56 0 l 1
192 240 m 1
 305 240 l 1
 249 483 l 1
 192 240 l 1
EndSplineSet
Validated: 1
EndChar

StartChar: plus
Encoding: 43 43 2
Width: 500
VWidth: 0
Flags: W
HStem: 254 80<62 212 288 438> 460 20G<212 288>
VStem: 212 76<104 254 334 480>
LayerCount: 2
Back
Fore
SplineSet
62 254 m 1
 62 334 l 1
 212 334 l 1
 212 480 l 1
 288 480 l 1
 288 334 l 1
 438 334 l 1
 438 254 l 1
 288 254 l 1
 288 104 l 1
 212 104 l 1
 212 254 l 1
 62 254 l 1
EndSplineSet
Validated: 1
EndChar

StartChar: x
Encoding: 120 120 3
Width: 503
VWidth: 0
Flags: W
HStem: 0 21G<50 151.103 352.897 453> 460 20G<50 151.103 352.897 453>
DStem2: 138 480 50 480 0.549872 -0.835249<0 208.019 318.272 526.29> 50 0 138 0 0.549872 0.835249<48.3887 256.407 366.66 574.679>
LayerCount: 2
Back
Fore
SplineSet
50 480 m 1
 138 480 l 1
 252 306 l 1
 366 480 l 1
 453 480 l 1
 295 240 l 1
 453 0 l 1
 366 0 l 1
 252 174 l 1
 138 0 l 1
 50 0 l 1
 208 240 l 1
 50 480 l 1
EndSplineSet
Validated: 1
EndChar

StartChar: B
Encoding: 66 66 4
Width: 500
VWidth: 0
Flags: W
HStem: 0 80<138 337.827> 280 80<138 336.115> 580 80<138 337.827>
VStem: 62 76<80 280 360 580> 362 76<105.336 254.832 386.149 555.605>
LayerCount: 2
Back
Fore
SplineSet
138 280 m 1
 138 80 l 1
 282 80 l 0
 327 80 362 113 362 154 c 0
 362 206 l 0
 362 246 326 280 280 280 c 0
 138 280 l 1
138 580 m 1
 138 360 l 1
 282 360 l 0
 327 360 362 396 362 442 c 0
 362 502 l 0
 362 548 326 580 280 580 c 0
 138 580 l 1
62 660 m 1
 280 660 l 0
 367 660 438 589 438 502 c 0
 438 442 l 0
 438 393 418 351 386 322 c 1
 421 293 438 251 438 206 c 0
 438 150 l 0
 438 67 367 0 280 0 c 0
 62 0 l 1
 62 660 l 1
EndSplineSet
Validated: 1
EndChar

StartChar: period
Encoding: 46 46 5
Width: 500
VWidth: 0
Flags: W
HStem: 0 148<201.495 298.505>
VStem: 178 144<21.375 124.625>
LayerCount: 2
Back
Fore
SplineSet
250 148 m 0
 290 148 322 111 322 72 c 0
 322 33 289 0 250 0 c 0
 211 0 178 33 178 72 c 0
 178 111 210 148 250 148 c 0
EndSplineSet
Validated: 1
EndChar

StartChar: greater
Encoding: 62 62 6
Width: 499
VWidth: 0
Flags: W
DStem2: 58 560 58 471 0.828048 -0.560657<49.8985 354.439> 58 129 58 40 0.828048 0.560657<0 304.54>
LayerCount: 2
Back
Fore
SplineSet
58 471 m 1
 58 560 l 1
 442 300 l 1
 58 40 l 1
 58 129 l 1
 310 300 l 1
 58 471 l 1
EndSplineSet
Validated: 1
EndChar

StartChar: exclam
Encoding: 33 33 8
Width: 500
VWidth: 0
Flags: W
HStem: 0 148<201.495 298.505> 640 20G<202 298>
VStem: 178 144<21.375 124.625> 202 96<342.2 660> 212 76<206 523.8>
LayerCount: 2
Back
Fore
SplineSet
212 206 m 1xc8
 202 660 l 1
 298 660 l 1xd0
 288 206 l 1
 212 206 l 1xc8
250 148 m 0
 290 148 322 111 322 72 c 0
 322 33 289 0 250 0 c 0
 211 0 178 33 178 72 c 0xe0
 178 111 210 148 250 148 c 0
EndSplineSet
Validated: 1
EndChar

StartChar: quotedbl
Encoding: 34 34 9
Width: 496
VWidth: 0
Flags: W
HStem: 400 260<98 178 318 398>
VStem: 88 100<478 660> 98 80<400 582> 308 100<478 660> 318 80<400 582>
LayerCount: 2
Back
Fore
SplineSet
308 660 m 1x90
 408 660 l 1x90
 398 400 l 1
 318 400 l 1x88
 308 660 l 1x90
88 660 m 1xc0
 188 660 l 1xc0
 178 400 l 1
 98 400 l 1xa0
 88 660 l 1xc0
EndSplineSet
Validated: 1
EndChar

StartChar: numbersign
Encoding: 35 35 10
Width: 463
VWidth: 0
Flags: W
HStem: 0 21G<33 115.606 173 255.5> 160 80<-38 78 316 434> 400 80<27 145 382 500> 640 20G<212.333 295 349.485 432>
DStem2: 33 0 110 0 0.2699 0.962888<20.7823 166.208 249.177 415.384 498.353 685.438> 173 0 250 0 0.265835 0.964018<20.4693 186.409 269.379 435.319 518.288 684.634>
LayerCount: 2
Back
Fore
SplineSet
173 0 m 1
 355 660 l 1
 432 660 l 1
 382 480 l 1
 521 480 l 1
 500 400 l 1
 360 400 l 1
 316 240 l 1
 456 240 l 1
 434 160 l 1
 294 160 l 1
 250 0 l 1
 173 0 l 1
110 0 m 1
 33 0 l 1
 78 160 l 1
 -58 160 l 1
 -38 240 l 1
 100 240 l 1
 145 400 l 1
 6 400 l 1
 27 480 l 1
 167 480 l 1
 218 660 l 1
 295 660 l 1
 110 0 l 1
EndSplineSet
Validated: 1
EndChar

StartChar: dollar
Encoding: 36 36 11
Width: 498
VWidth: 0
Flags: W
HStem: 0 80<170.405 206 286 334.639> 282 79<177.646 206 286 340.622> 580 80<286 333.729>
VStem: 54 83<113.911 162> 74 80<382.069 555.438> 206 80<-60 2.41447 80 282 363 574 660 720> 364 80<109.674 257.693 490 546.093>
LayerCount: 2
Back
Fore
SplineSet
206 80 m 1xf6
 206 282 l 1
 127 290 74 363 74 442 c 2
 74 502 l 2xee
 74 583 136 646 206 659 c 1
 206 720 l 1
 286 720 l 1
 286 660 l 1
 294 660 l 2
 376 660 430 578 442 490 c 1
 363 490 l 1
 353 542 328 580 294 580 c 2
 286 580 l 1
 286 361 l 1
 374 359 444 292 444 210 c 2
 444 150 l 2
 444 68 368 6 286 0 c 1
 286 -60 l 1
 206 -60 l 1
 206 0 l 1
 127 6 66 81 54 162 c 1
 137 162 l 1
 147 119 177 84 206 80 c 1xf6
206 574 m 1
 173 562 154 538 154 502 c 2
 154 442 l 2
 154 402 176 371 206 363 c 1
 206 574 l 1
286 80 m 1
 328 85 364 119 364 154 c 2
 364 207 l 2
 364 249 330 282 286 282 c 1
 286 261 286 106 286 80 c 1
EndSplineSet
Validated: 1
EndChar

StartChar: percent
Encoding: 37 37 12
Width: 500
VWidth: 0
Flags: W
HStem: -7 80<269.632 348.897> 170 80<269.28 349.257> 410 80<149.456 229.989> 590 80<147.203 232.175>
VStem: 60 80<499.454 582.921> 179 80<82.8111 159.335> 240 80<500.151 580.823> 359 80<84.2769 159.335>
DStem2: 28 224 64 166 0.841178 0.540758<0 483.798>
LayerCount: 2
Back
Fore
SplineSet
28 224 m 1xf9
 448 494 l 1
 472 428 l 1
 64 166 l 1
 28 224 l 1xf9
259 122 m 0xfd
 259 101 280 73 308 73 c 0
 338 73 359 101 359 122 c 0
 359 143 338 170 308 170 c 0
 280 170 259 143 259 122 c 0xfd
179 122 m 0
 179 188 238 250 308 250 c 0
 378 250 439 188 439 122 c 0
 439 56 378 -7 308 -7 c 0
 238 -7 179 56 179 122 c 0
140 542 m 0
 140 513 161 490 188 490 c 0
 218 490 240 513 240 542 c 0xfb
 240 571 218 590 188 590 c 0
 160 590 140 571 140 542 c 0
60 542 m 0
 60 612 118 670 188 670 c 0
 258 670 320 612 320 542 c 0
 320 472 258 410 188 410 c 0
 118 410 60 472 60 542 c 0
EndSplineSet
Validated: 1
EndChar

StartChar: ampersand
Encoding: 38 38 13
Width: 500
VWidth: 0
Flags: W
HStem: 0 80<151.407 302 378 468> 280 80<155.537 284.898 378 468> 580 80<152.167 285.891>
VStem: 32 76<122.537 237.458 407.381 535.926> 302 76<80 280> 332 76<406.446 536.126>
LayerCount: 2
Back
Fore
SplineSet
220 580 m 0xf4
 158 580 108 534 108 472 c 0
 108 411 159 360 220 360 c 0
 282 360 332 410 332 472 c 0
 332 534 282 580 220 580 c 0xf4
468 0 m 1
 220 0 l 0
 117 0 32 81 32 180 c 0
 32 239 61 290 104 322 c 1
 57 358 32 411 32 472 c 0
 32 575 117 660 220 660 c 0
 324 660 408 576 408 472 c 0xf4
 408 430 395 389 375 360 c 1
 468 360 l 1
 468 280 l 1
 378 280 l 1
 378 80 l 1xf8
 468 80 l 1
 468 0 l 1
302 280 m 1xf8
 220 280 l 0
 158 280 108 234 108 180 c 0
 108 126 158 80 220 80 c 0
 302 80 l 1
 302 280 l 1xf8
EndSplineSet
Validated: 1
EndChar

StartChar: quotesingle
Encoding: 39 39 14
Width: 496
VWidth: 0
Flags: W
HStem: 400 260<208 288>
VStem: 198 100<478 660> 208 80<400 582>
LayerCount: 2
Back
Fore
SplineSet
198 660 m 1xc0
 298 660 l 1xc0
 288 400 l 1
 208 400 l 1xa0
 198 660 l 1xc0
EndSplineSet
Validated: 1
EndChar

StartChar: parenleft
Encoding: 40 40 15
Width: 500
VWidth: 0
Flags: W
HStem: -72 84<261.958 378> 648 84<261.958 378>
VStem: 122 76<96.375 563.625>
LayerCount: 2
Back
Fore
SplineSet
378 -72 m 1
 310 -72 l 0
 203 -72 122 57 122 210 c 0
 122 450 l 0
 122 603 203 732 310 732 c 0
 378 732 l 1
 378 648 l 1
 310 648 l 0
 254 648 198 566 198 450 c 0
 198 210 l 0
 198 94 254 12 310 12 c 0
 378 12 l 1
 378 -72 l 1
EndSplineSet
Validated: 1
EndChar

StartChar: parenright
Encoding: 41 41 16
Width: 500
VWidth: 0
Flags: W
HStem: -72 84<122 238.042> 648 84<122 238.042>
VStem: 302 76<96.375 563.625>
LayerCount: 2
Back
Fore
SplineSet
122 -72 m 1
 122 12 l 1
 190 12 l 0
 246 12 302 94 302 210 c 0
 302 450 l 0
 302 566 246 648 190 648 c 0
 122 648 l 1
 122 732 l 1
 190 732 l 0
 297 732 378 603 378 450 c 0
 378 210 l 0
 378 57 297 -72 190 -72 c 0
 122 -72 l 1
EndSplineSet
Validated: 1
EndChar

StartChar: asterisk
Encoding: 42 42 17
Width: 500
VWidth: 0
Flags: W
HStem: 460 20G<210 290>
VStem: 210 80<349 480>
DStem2: 82 388 56 310 0.956583 -0.291459<0 129.468> 107 168 171 120 0.584105 0.811678<0 128.222> 317 272 248 227 0.611872 -0.790957<0 126.21> 290 349 317 272 0.95448 0.298275<2.80378 134.104>
LayerCount: 2
Back
Fore
SplineSet
290 349 m 1
 418 389 l 1
 444 312 l 1
 317 272 l 1
 394 172 l 1
 330 121 l 1
 248 227 l 1
 171 120 l 1
 107 168 l 1
 182 272 l 1
 56 310 l 1
 82 388 l 1
 210 349 l 1
 210 480 l 1
 290 480 l 1
 290 349 l 1
EndSplineSet
Validated: 1
EndChar

StartChar: comma
Encoding: 44 44 18
Width: 500
VWidth: 0
Flags: W
HStem: -116 256<211.531 253.016>
VStem: 178 148<12.6861 114.714>
LayerCount: 2
Back
Fore
SplineSet
326 64 m 0
 326 -1 241 -112 238 -116 c 1
 174 -116 l 1
 211 2 l 1
 189 17 178 39 178 64 c 0
 178 106 211 140 250 140 c 0
 289 140 326 105 326 64 c 0
EndSplineSet
Validated: 1
EndChar

StartChar: hyphen
Encoding: 45 45 19
Width: 500
VWidth: 0
Flags: W
HStem: 258 84<62 438>
LayerCount: 2
Back
Fore
SplineSet
62 258 m 1
 62 342 l 1
 438 342 l 1
 438 258 l 1
 62 258 l 1
EndSplineSet
Validated: 1
EndChar

StartChar: slash
Encoding: 47 47 20
Width: 503
VWidth: 0
Flags: W
HStem: 0 21G<54 147.424> 640 20G<356.545 449>
DStem2: 54 0 138 0 0.42738 0.904072<35.8999 730.03>
LayerCount: 2
Back
Fore
SplineSet
54 0 m 1
 366 660 l 1
 449 660 l 1
 138 0 l 1
 54 0 l 1
EndSplineSet
Validated: 1
EndChar

StartChar: zero
Encoding: 48 48 21
Width: 500
VWidth: 0
Flags: W
HStem: 0 80<171.821 328.373> 580 80<171.627 324.577>
VStem: 62 76<281 542.388> 362 76<117.612 391>
DStem2: 138 281 142 176 0.715187 0.698933<0 237.085>
LayerCount: 2
Back
Fore
SplineSet
62 184 m 2
 62 476 l 0
 62 575 129 660 220 660 c 0
 280 660 l 0
 371 660 438 575 438 476 c 0
 438 184 l 0
 438 85 371 0 280 0 c 0
 220 0 l 0
 129 0 62 85 62 184 c 2
142 176 m 1
 148 117 179 80 220 80 c 0
 280 80 l 0
 322 80 362 124 362 184 c 0
 362 391 l 1
 142 176 l 1
356 494 m 1
 347 548 317 580 279 580 c 0
 220 580 l 0
 178 580 138 536 138 476 c 0
 138 281 l 1
 356 494 l 1
EndSplineSet
Validated: 1
EndChar

StartChar: one
Encoding: 49 49 22
Width: 500
VWidth: 0
Flags: W
HStem: 0 21G<280 360> 640 20G<263.429 360>
VStem: 280 80<0 555>
DStem2: 140 520 184 462 0.716995 0.697078<0 124.777>
LayerCount: 2
Back
Fore
SplineSet
140 520 m 1
 284 660 l 1
 360 660 l 1
 360 0 l 1
 280 0 l 1
 280 555 l 1
 184 462 l 1
 140 520 l 1
EndSplineSet
Validated: 1
EndChar

StartChar: two
Encoding: 50 50 23
Width: 500
VWidth: 0
Flags: W
HStem: 0 80<139 439> 580 80<177.727 328.649>
VStem: 63 76<80 161.567 494 537.485> 363 76<416.729 543.011>
LayerCount: 2
Back
Fore
SplineSet
221 660 m 2
 281 660 l 2
 372 660 439 575 439 476 c 0
 439 282 139 253 139 98 c 2
 139 80 l 1
 439 80 l 1
 439 0 l 1
 63 0 l 1
 63 98 l 2
 63 311 363 337 363 472 c 0
 363 534 323 580 281 580 c 2
 221 580 l 2
 184 580 153 539 143 494 c 1
 61 494 l 1
 75 581 141 660 221 660 c 2
EndSplineSet
Validated: 1
EndChar

StartChar: three
Encoding: 51 51 24
Width: 500
VWidth: 0
Flags: W
HStem: 0 80<164.109 337.383> 280 80<181 335.115> 580 80<173.462 337.25>
VStem: 361 80<105.336 255.096 386.149 555.605>
LayerCount: 2
Back
Fore
SplineSet
63 124 m 1
 59 136 l 1
 145 136 l 1
 145 128 l 1
 157 101 184 80 219 80 c 2
 281 80 l 2
 326 80 361 113 361 154 c 2
 361 206 l 2
 361 246 325 280 279 280 c 2
 181 280 l 1
 181 360 l 1
 281 360 l 2
 326 360 361 396 361 442 c 2
 361 502 l 2
 361 548 325 580 279 580 c 2
 219 580 l 2
 183 580 157 548 145 520 c 1
 59 520 l 1
 73 593 142 660 219 660 c 2
 279 660 l 2
 366 660 441 589 441 502 c 2
 441 442 l 2
 441 393 418 351 386 322 c 1
 421 294 441 251 441 206 c 2
 441 150 l 2
 441 67 366 0 279 0 c 2
 219 0 l 2
 142 0 77 52 63 124 c 1
EndSplineSet
Validated: 1
EndChar

StartChar: four
Encoding: 52 52 25
Width: 500
VWidth: 0
Flags: W
HStem: 0 21G<362 438> 160 80<155 362> 640 20G<351.794 438>
VStem: 362 76<0 160 240 531>
DStem2: 62 232 155 240 0.579074 0.815275<60.3761 417.489>
LayerCount: 2
Back
Fore
SplineSet
362 240 m 1
 362 531 l 1
 155 240 l 1
 362 240 l 1
438 660 m 1
 438 0 l 1
 362 0 l 1
 362 160 l 1
 62 160 l 1
 62 232 l 1
 366 660 l 1
 438 660 l 1
EndSplineSet
Validated: 1
EndChar

StartChar: five
Encoding: 53 53 26
Width: 499
VWidth: 0
Flags: W
HStem: 0 80<170.874 323.573> 374 84<181.114 331.288> 580 80<200 432>
VStem: 54 84<115.344 166> 365 80<120.583 336.216>
DStem2: 67 318 176 448 0.178379 0.983962<16.0541 53.3924 147.358 281.522>
LayerCount: 2
Back
Fore
SplineSet
67 318 m 1
 129 660 l 1
 432 660 l 1
 432 580 l 1
 200 580 l 1
 176 448 l 1
 190 456 202 458 224 458 c 2
 284 458 l 2
 375 458 445 373 445 274 c 2
 445 184 l 2
 445 82 365 0 274 0 c 2
 214 0 l 2
 132 0 66 81 54 166 c 1
 138 166 l 1
 148 118 180 80 214 80 c 2
 274 80 l 2
 316 80 365 126 365 184 c 2
 365 270 l 2
 365 328 326 374 284 374 c 2
 224 374 l 2
 195 374 172 347 157 318 c 1
 67 318 l 1
EndSplineSet
Validated: 1
EndChar

StartChar: six
Encoding: 54 54 27
Width: 500
VWidth: 0
Flags: W
HStem: 0 80<171.351 326.649> 344 84<171.351 326.649> 580 80<170.627 327.842>
VStem: 61 76<117.612 308.289 401 542.388> 361 76<117.612 306.216 494 544.656>
LayerCount: 2
Back
Fore
SplineSet
279 580 m 2
 219 580 l 2
 177 580 137 535 137 473 c 2
 137 401 l 1
 162 419 189 428 219 428 c 2
 279 428 l 2
 370 428 437 343 437 244 c 2
 437 184 l 2
 437 85 370 0 279 0 c 2
 219 0 l 2
 128 0 61 85 61 184 c 2
 61 476 l 2
 61 575 128 660 219 660 c 2
 279 660 l 2
 361 660 439 579 439 494 c 1
 357 494 l 1
 357 544 313 580 279 580 c 2
137 240 m 2
 137 184 l 2
 137 126 177 80 219 80 c 2
 279 80 l 2
 321 80 361 126 361 184 c 2
 361 240 l 2
 361 298 321 344 279 344 c 2
 219 344 l 2
 177 344 137 298 137 240 c 2
EndSplineSet
Validated: 1
EndChar

StartChar: seven
Encoding: 55 55 28
Width: 500
VWidth: 0
Flags: W
HStem: 0 21G<112 204.299> 580 80<60 353>
DStem2: 112 0 196 0 0.383277 0.923634<32.1952 628.077>
LayerCount: 2
Back
Fore
SplineSet
60 660 m 1
 440 660 l 1
 440 588 l 1
 196 0 l 1
 112 0 l 1
 353 580 l 1
 60 580 l 1
 60 660 l 1
EndSplineSet
Validated: 1
EndChar

StartChar: eight
Encoding: 56 56 29
Width: 500
VWidth: 0
Flags: W
HStem: 0 80<171.627 328.373> 280 80<173.962 326.038> 580 80<172.351 327.649>
VStem: 62 76<114.005 246.527 398.127 544.231> 362 76<114.005 246.165 398.675 544.231>
LayerCount: 2
Back
Fore
SplineSet
438 472 m 0
 438 410 415 356 379 322 c 1
 418 288 438 237 438 180 c 0
 438 82 371 0 280 0 c 0
 220 0 l 0
 129 0 62 82 62 180 c 0
 62 238 85 289 121 322 c 1
 82 359 62 411 62 472 c 0
 62 575 129 660 220 660 c 0
 280 660 l 0
 371 660 438 575 438 472 c 0
362 472 m 0
 362 534 322 580 280 580 c 0
 220 580 l 0
 178 580 138 534 138 472 c 0
 138 410 178 360 220 360 c 0
 280 360 l 0
 322 360 362 410 362 472 c 0
138 180 m 0
 138 122 178 80 220 80 c 0
 280 80 l 0
 322 80 362 122 362 180 c 0
 362 238 322 280 280 280 c 0
 220 280 l 0
 178 280 138 238 138 180 c 0
EndSplineSet
Validated: 1
EndChar

StartChar: nine
Encoding: 57 57 30
Width: 499
VWidth: 0
Flags: W
HStem: 0 80<177.444 329.288> 228 84<173.535 330.6> 580 80<173.535 330.465>
VStem: 63 78<120.292 162 348.231 543.984> 363 78<117.612 255 346.898 545.102>
LayerCount: 2
Back
Fore
SplineSet
222 80 m 2
 282 80 l 2
 324 80 363 126 363 184 c 2
 363 255 l 1
 338 237 312 228 282 228 c 2
 222 228 l 2
 131 228 63 315 63 416 c 2
 63 472 l 2
 63 573 131 660 222 660 c 2
 282 660 l 2
 373 660 441 575 441 476 c 2
 441 184 l 2
 441 85 373 0 282 0 c 2
 222 0 l 2
 140 0 70 80 58 162 c 1
 145 162 l 1
 155 115 188 80 222 80 c 2
363 416 m 2
 363 476 l 2
 363 536 324 580 282 580 c 2
 222 580 l 2
 180 580 141 536 141 476 c 2
 141 416 l 2
 141 356 180 312 222 312 c 2
 282 312 l 2
 324 312 363 356 363 416 c 2
EndSplineSet
Validated: 1
EndChar

StartChar: colon
Encoding: 58 58 31
Width: 500
VWidth: 0
Flags: W
HStem: 0 148<201.495 298.505> 333 148<200.62 299.38>
VStem: 178 144<21.375 124.625 355.875 459.125>
LayerCount: 2
Back
Fore
SplineSet
250 481 m 0
 289 481 322 447 322 408 c 0
 322 369 289 333 250 333 c 0
 211 333 178 369 178 408 c 0
 178 447 211 481 250 481 c 0
250 148 m 0
 290 148 322 111 322 72 c 0
 322 33 289 0 250 0 c 0
 211 0 178 33 178 72 c 0
 178 111 210 148 250 148 c 0
EndSplineSet
Validated: 1
EndChar

StartChar: semicolon
Encoding: 59 59 32
Width: 500
VWidth: 0
Flags: W
HStem: 333 148<200.62 301.287>
VStem: 178 148<2 104.108 358.533 456.958>
LayerCount: 2
Back
Fore
SplineSet
250 481 m 0
 289 481 326 448 326 408 c 0
 326 369 289 333 250 333 c 0
 211 333 178 369 178 408 c 0
 178 447 211 481 250 481 c 0
326 56 m 1
 326 -8 243 -116 238 -124 c 1
 174 -124 l 1
 211 -10 l 1
 189 5 178 31 178 56 c 0
 178 95 211 128 250 128 c 0
 289 128 325 95 326 56 c 1
EndSplineSet
Validated: 1
EndChar

StartChar: less
Encoding: 60 60 33
Width: 498
VWidth: 0
Flags: W
DStem2: 186 300 55 300 0.83073 -0.556675<0 309.246> 55 300 186 300 0.83073 0.556675<108.826 418.071>
LayerCount: 2
Back
Fore
SplineSet
443 472 m 1
 186 300 l 1
 443 128 l 1
 443 40 l 1
 55 300 l 1
 443 560 l 1
 443 472 l 1
EndSplineSet
Validated: 1
EndChar

StartChar: equal
Encoding: 61 61 34
Width: 500
VWidth: 0
Flags: W
HStem: 138 84<62 438> 378 84<62 438>
LayerCount: 2
Back
Fore
SplineSet
62 378 m 1
 62 462 l 1
 438 462 l 1
 438 378 l 1
 62 378 l 1
62 138 m 1
 62 222 l 1
 438 222 l 1
 438 138 l 1
 62 138 l 1
EndSplineSet
Validated: 1
EndChar

StartChar: question
Encoding: 63 63 35
Width: 499
VWidth: 0
Flags: W
HStem: 0 148<191.042 289.467> 344 84<286.729 338.921> 580 80<176.098 333.589>
VStem: 59 84<494 545.43> 167 148<22.6196 123.287> 201 80<206 343.886> 360 80<447.231 556.333>
LayerCount: 2
Back
Fore
SplineSet
219 660 m 2xf6
 279 660 l 2
 366 660 440 589 440 502 c 0
 440 415 379 344 300 344 c 0
 295 344 281 327 281 297 c 2
 281 206 l 1
 201 206 l 1
 201 302 l 2
 201 368 242 428 300 428 c 0
 330 428 360 459 360 504 c 0
 360 546 325 580 279 580 c 2
 219 580 l 2
 182 580 153 539 143 494 c 1
 59 494 l 1
 73 581 140 660 219 660 c 2xf6
240 148 m 0
 279 148 315 111 315 72 c 0
 315 33 279 0 240 0 c 0
 201 0 167 33 167 72 c 0xfa
 167 111 200 148 240 148 c 0
EndSplineSet
Validated: 1
EndChar

StartChar: at
Encoding: 64 64 36
Width: 500
VWidth: 0
Flags: W
HStem: 0 80<140.627 355.312> 160 80<232.351 385.649> 400 80<232.351 386.911> 580 80<140.627 353.577>
VStem: 31 76<114.491 545.509> 151 76<249.2 392.692> 391 76<116.62 153 249.2 393.231 470 540.593>
LayerCount: 2
Back
Fore
SplineSet
309 0 m 2
 189 0 l 2
 98 0 31 85 31 184 c 2
 31 476 l 2
 31 575 98 660 189 660 c 2
 309 660 l 2
 400 660 467 575 467 472 c 2
 467 276 l 2
 467 210 409 160 339 160 c 2
 279 160 l 2
 209 160 151 210 151 276 c 2
 151 366 l 2
 151 432 209 480 279 480 c 2
 339 480 l 2
 357 480 377 475 391 470 c 1
 391 532 351 580 309 580 c 2
 189 580 l 2
 147 580 107 537 107 476 c 2
 107 184 l 2
 107 123 147 80 189 80 c 2
 309 80 l 2
 346 80 377 116 387 153 c 1
 469 153 l 1
 455 72 388 -0 309 0 c 2
339 240 m 2
 368 240 391 259 391 276 c 2
 391 366 l 2
 391 383 368 400 339 400 c 2
 279 400 l 2
 250 400 227 383 227 366 c 2
 227 276 l 2
 227 259 250 240 279 240 c 2
 339 240 l 2
EndSplineSet
Validated: 1
EndChar

StartChar: C
Encoding: 67 67 37
Width: 499
VWidth: 0
Flags: W
HStem: 0 80<171.999 323.91> 580 80<171.999 323.818>
VStem: 62 76<114.491 545.509> 360 77<119.117 166 494 540.883>
LayerCount: 2
Back
Fore
SplineSet
359 494 m 0
 351 542 314 580 280 580 c 2
 220 580 l 2
 178 580 138 537 138 476 c 2
 138 184 l 2
 138 123 178 80 220 80 c 2
 280 80 l 2
 316 80 350 120 360 166 c 1
 437 166 l 1
 425 81 362 0 280 0 c 2
 220 0 l 2
 130 0 62 85 62 184 c 2
 62 476 l 2
 62 575 130 660 220 660 c 2
 280 660 l 2
 362 660 424 579 436 494 c 1
 359 494 l 0
EndSplineSet
Validated: 1
EndChar

StartChar: D
Encoding: 68 68 38
Width: 500
VWidth: 0
Flags: W
HStem: 0 80<138 328.373> 580 80<138 328.373>
VStem: 62 76<80 580> 362 76<114.491 545.509>
LayerCount: 2
Back
Fore
SplineSet
138 580 m 1
 138 80 l 1
 280 80 l 0
 322 80 362 123 362 184 c 0
 362 476 l 0
 362 537 322 580 280 580 c 0
 138 580 l 1
62 660 m 1
 280 660 l 0
 371 660 438 575 438 476 c 0
 438 184 l 0
 438 85 371 0 280 0 c 0
 62 0 l 1
 62 660 l 1
EndSplineSet
Validated: 1
EndChar

StartChar: E
Encoding: 69 69 39
Width: 500
VWidth: 0
Flags: W
HStem: 0 80<138 438> 280 80<138 378> 580 80<138 438>
VStem: 62 76<80 280 360 580>
LayerCount: 2
Back
Fore
SplineSet
138 280 m 1
 138 80 l 1
 438 80 l 1
 438 0 l 1
 62 0 l 1
 62 660 l 1
 438 660 l 1
 438 580 l 1
 138 580 l 1
 138 360 l 1
 378 360 l 1
 378 280 l 1
 138 280 l 1
EndSplineSet
Validated: 1
EndChar

StartChar: F
Encoding: 70 70 40
Width: 500
VWidth: 0
Flags: W
HStem: 0 21G<62 138> 280 80<138 378> 580 80<138 438>
VStem: 62 76<0 280 360 580>
LayerCount: 2
Back
Fore
SplineSet
138 0 m 1
 62 0 l 1
 62 660 l 1
 438 660 l 1
 438 580 l 1
 138 580 l 1
 138 360 l 1
 378 360 l 1
 378 280 l 1
 138 280 l 1
 138 0 l 1
EndSplineSet
Validated: 1
EndChar

StartChar: G
Encoding: 71 71 41
Width: 500
VWidth: 0
Flags: W
HStem: 0 80<170.627 329.044> 280 80<211 361> 580 80<170.627 322.986>
VStem: 61 76<114.491 545.509> 361 76<0 25 113.431 280 490 533.75>
LayerCount: 2
Back
Fore
SplineSet
211 360 m 1
 437 360 l 1
 437 0 l 1
 361 0 l 1
 361 25 l 1
 335 7 309 0 279 0 c 2
 219 0 l 2
 128 0 61 85 61 184 c 2
 61 476 l 2
 61 575 128 660 219 660 c 2
 279 660 l 2
 361 660 427 576 439 490 c 1
 357 490 l 1
 347 541 313 580 279 580 c 2
 219 580 l 2
 177 580 137 537 137 476 c 2
 137 184 l 2
 137 123 177 80 219 80 c 2
 279 80 l 2
 321 80 361 122 361 180 c 2
 361 280 l 1
 211 280 l 1
 211 360 l 1
EndSplineSet
Validated: 1
EndChar

StartChar: H
Encoding: 72 72 42
Width: 500
VWidth: 0
Flags: W
HStem: 0 21G<62 138 362 438> 280 80<138 362> 640 20G<62 138 362 438>
VStem: 62 76<0 280 360 660> 362 76<0 280 360 660>
LayerCount: 2
Back
Fore
SplineSet
62 660 m 1
 138 660 l 1
 138 360 l 1
 362 360 l 1
 362 660 l 1
 438 660 l 1
 438 0 l 1
 362 0 l 1
 362 280 l 1
 138 280 l 1
 138 0 l 1
 62 0 l 1
 62 660 l 1
EndSplineSet
Validated: 1
EndChar

StartChar: I
Encoding: 73 73 43
Width: 500
VWidth: 0
Flags: W
HStem: 0 80<62 212 288 438> 580 80<62 212 288 438>
VStem: 212 76<80 580>
LayerCount: 2
Back
Fore
SplineSet
62 660 m 1
 438 660 l 1
 438 580 l 1
 288 580 l 1
 288 80 l 1
 438 80 l 1
 438 0 l 1
 62 0 l 1
 62 80 l 1
 212 80 l 1
 212 580 l 1
 62 580 l 1
 62 660 l 1
EndSplineSet
Validated: 1
EndChar

StartChar: J
Encoding: 74 74 44
Width: 499
VWidth: 0
Flags: W
HStem: 0 80<175.874 323.812> 640 20G<360 440>
VStem: 59 84<115.344 166> 360 80<117.612 660>
LayerCount: 2
Back
Fore
SplineSet
143 166 m 1
 153 118 185 80 219 80 c 2
 279 80 l 2
 321 80 360 126 360 188 c 2
 360 660 l 1
 440 660 l 1
 440 184 l 2
 440 85 370 0 279 0 c 2
 219 0 l 2
 138 0 71 81 59 166 c 1
 143 166 l 1
EndSplineSet
Validated: 1
EndChar

StartChar: K
Encoding: 75 75 45
Width: 499
VWidth: 0
Flags: W
HStem: 0 21G<54 130 332.733 442> 640 20G<54 130 330.629 445>
VStem: 54 76<0 297 409 660>
DStem2: 130 409 184 360 0.656365 0.754443<0 332.453> 184 360 133 300 0.582519 -0.812817<19.0606 387.565>
LayerCount: 2
Back
Fore
SplineSet
445 660 m 1
 184 360 l 1
 442 0 l 1
 347 0 l 1
 133 300 l 1
 130 297 l 1
 130 0 l 1
 54 0 l 1
 54 660 l 1
 130 660 l 1
 130 409 l 1
 348 660 l 1
 445 660 l 1
EndSplineSet
Validated: 1
EndChar

StartChar: L
Encoding: 76 76 46
Width: 500
VWidth: 0
Flags: W
HStem: 0 80<138 438> 640 20G<62 138>
VStem: 62 76<80 660>
LayerCount: 2
Back
Fore
SplineSet
62 660 m 1
 138 660 l 1
 138 80 l 1
 438 80 l 1
 438 0 l 1
 62 0 l 1
 62 660 l 1
EndSplineSet
Validated: 1
EndChar

StartChar: M
Encoding: 77 77 47
Width: 500
VWidth: 0
Flags: W
HStem: 0 21G<32 108 212.33 293.488 392 468> 640 20G<32 108.654 386.538 468>
VStem: 32 76<0 388 652.676 660> 392 76<0 379 634.366 660>
DStem2: 103 660 108 388 0.272032 -0.962288<263.103 540.379> 250 140 288 0 0.263431 0.964678<0 267.965>
LayerCount: 2
Back
Fore
SplineSet
108 0 m 1
 32 0 l 1
 32 660 l 1
 103 660 l 1
 250 140 l 1
 392 660 l 1
 468 660 l 1
 468 0 l 1
 392 0 l 1
 392 379 l 1
 288 0 l 1
 218 0 l 1
 108 388 l 1
 108 0 l 1
EndSplineSet
Validated: 1
EndChar

StartChar: N
Encoding: 78 78 48
Width: 500
VWidth: 0
Flags: W
HStem: 0 21G<62 138 352.508 438> 640 20G<62 147.492 362 438>
VStem: 62 76<0 472> 362 76<188 660>
DStem2: 138 660 138 472 0.428744 -0.903426<169.844 522.456>
LayerCount: 2
Back
Fore
SplineSet
138 660 m 1
 362 188 l 1
 362 660 l 1
 438 660 l 1
 438 0 l 1
 362 0 l 1
 138 472 l 1
 138 0 l 1
 62 0 l 1
 62 660 l 1
 138 660 l 1
EndSplineSet
Validated: 1
EndChar

StartChar: O
Encoding: 79 79 49
Width: 500
VWidth: 0
Flags: W
HStem: 0 80<171.627 328.373> 580 80<171.627 328.373>
VStem: 62 76<114.491 545.509> 362 76<114.491 545.509>
LayerCount: 2
Back
Fore
SplineSet
138 184 m 2
 138 123 178 80 220 80 c 0
 280 80 l 0
 322 80 362 123 362 184 c 0
 362 476 l 0
 362 537 322 580 280 580 c 0
 220 580 l 0
 178 580 138 537 138 476 c 0
 138 184 l 2
62 184 m 2
 62 476 l 0
 62 575 129 660 220 660 c 0
 280 660 l 0
 371 660 438 575 438 476 c 0
 438 184 l 0
 438 85 371 0 280 0 c 0
 220 0 l 0
 129 0 62 85 62 184 c 2
EndSplineSet
Validated: 1
EndChar

StartChar: P
Encoding: 80 80 50
Width: 500
VWidth: 0
Flags: W
HStem: 0 21G<62 138> 280 80<138 334.221> 580 80<138 337.827>
VStem: 62 76<0 280 360 580> 362 76<387.288 555.605>
LayerCount: 2
Back
Fore
SplineSet
280 280 m 2
 138 280 l 1
 138 0 l 1
 62 0 l 1
 62 660 l 1
 280 660 l 0
 367 660 438 589 438 502 c 0
 438 442 l 0
 438 355 367 280 280 280 c 2
280 580 m 2
 138 580 l 1
 138 360 l 1
 282 360 l 0
 327 360 362 396 362 442 c 0
 362 502 l 0
 362 548 326 580 280 580 c 2
EndSplineSet
Validated: 1
EndChar

StartChar: Q
Encoding: 81 81 51
Width: 497
VWidth: 0
Flags: W
HStem: 0 80<152.926 291.111> 580 80<153.999 309.649>
VStem: 44 76<113.484 545.509> 344 76<165.363 542.388>
DStem2: 256 274 192 222 0.607911 -0.794006<2.38202 138.405 243.855 320.406>
LayerCount: 2
Back
Fore
SplineSet
44 184 m 2
 44 476 l 0
 44 575 112 660 202 660 c 0
 262 660 l 0
 354 660 420 575 420 476 c 0
 420 185 l 0
 420 149 410 119 396 92 c 1
 452 18 l 1
 386 -30 l 1
 340 29 l 1
 314 10 288 0 256 0 c 0
 200 0 l 0
 112 0 44 85 44 184 c 2
120 184 m 2
 120 122 158 80 200 80 c 0
 256 80 l 0
 268 80 282 85 292 93 c 1
 192 222 l 1
 256 274 l 1
 340 164 l 1
 344 172 344 177 344 184 c 0
 344 472 l 0
 344 534 304 580 262 580 c 0
 202 580 l 0
 160 580 120 537 120 476 c 0
 120 184 l 2
EndSplineSet
Validated: 1
EndChar

StartChar: R
Encoding: 82 82 52
Width: 500
VWidth: 0
Flags: W
HStem: 0 21G<62 138 362 438> 280 80<138 336.115> 580 80<138 337.827>
VStem: 62 76<0 280 360 580> 362 76<0 256.088 385.15 555.605>
LayerCount: 2
Back
SplineSet
280 600 m 2
 130 600 l 1
 130 360 l 1
 282 360 l 2
 331 360 370 400 370 450 c 2
 370 510 l 2
 370 560 330 600 280 600 c 2
438 0 m 1
 370 0 l 1
 261 300 l 1
 130 300 l 1
 130 0 l 1
 70 0 l 1
 70 660 l 1
 280 660 l 2
 363 660 430 593 430 510 c 2
 430 450 l 2
 430 383 386 326 325 307 c 1
 438 0 l 1
EndSplineSet
Fore
SplineSet
280 580 m 2
 138 580 l 1
 138 360 l 1
 282 360 l 0
 327 360 362 396 362 442 c 0
 362 502 l 0
 362 548 326 580 280 580 c 2
62 660 m 1
 280 660 l 0
 367 660 438 589 438 502 c 0
 438 442 l 0
 438 393 417 348 386 320 c 1
 421 291 438 251 438 206 c 0
 438 0 l 1
 362 0 l 1
 362 206 l 0
 362 248 326 280 280 280 c 0
 138 280 l 1
 138 0 l 1
 62 0 l 1
 62 660 l 1
EndSplineSet
Validated: 1
EndChar

StartChar: S
Encoding: 83 83 53
Width: 500
VWidth: 0
Flags: W
HStem: 0 80<171.627 336.85> 280 80<165.779 336.85> 580 80<162.173 327.649>
VStem: 62 76<114.58 180 387.288 555.605> 362 76<105.336 254.664 472 543.635>
LayerCount: 2
Back
Fore
SplineSet
438 472 m 1
 362 472 l 1
 362 534 322 580 280 580 c 2
 220 580 l 2
 174 580 138 548 138 502 c 2
 138 442 l 2
 138 396 174 360 220 360 c 2
 280 360 l 2
 367 360 438 293 438 210 c 2
 438 150 l 2
 438 67 367 0 280 0 c 2
 220 0 l 2
 129 0 62 82 62 180 c 1
 138 180 l 1
 138 123 178 80 220 80 c 2
 280 80 l 2
 326 80 362 114 362 154 c 2
 362 206 l 2
 362 246 326 280 280 280 c 2
 220 280 l 2
 133 280 62 355 62 442 c 2
 62 502 l 2
 62 589 133 660 220 660 c 2
 280 660 l 2
 371 660 438 575 438 472 c 1
EndSplineSet
Validated: 1
EndChar

StartChar: T
Encoding: 84 84 54
Width: 500
VWidth: 0
Flags: W
HStem: 0 21G<212 288> 580 80<62 212 288 438>
VStem: 212 76<0 580>
LayerCount: 2
Back
Fore
SplineSet
62 660 m 1
 438 660 l 1
 438 580 l 1
 288 580 l 1
 288 0 l 1
 212 0 l 1
 212 580 l 1
 62 580 l 1
 62 660 l 1
EndSplineSet
Validated: 1
EndChar

StartChar: U
Encoding: 85 85 55
Width: 500
VWidth: 0
Flags: W
HStem: 0 80<172.351 327.649> 640 20G<62 138 362 438>
VStem: 62 76<117.612 660> 362 76<117.612 660>
LayerCount: 2
Back
Fore
SplineSet
438 660 m 1
 438 184 l 0
 438 85 371 0 280 0 c 0
 220 0 l 0
 129 0 62 85 62 184 c 0
 62 660 l 1
 138 660 l 1
 138 188 l 0
 138 126 178 80 220 80 c 0
 280 80 l 0
 322 80 362 126 362 188 c 0
 362 660 l 1
 438 660 l 1
EndSplineSet
Validated: 1
EndChar

StartChar: V
Encoding: 86 86 56
Width: 496
VWidth: 0
Flags: W
HStem: 0 21G<205.333 290.667> 640 20G<56 140.679 357.321 440>
DStem2: 136 660 56 660 0.22723 -0.973841<0 496.042> 249 177 286 0 0.22723 0.973841<0 496.042>
LayerCount: 2
Back
Fore
SplineSet
56 660 m 1
 136 660 l 1
 249 177 l 1
 362 660 l 1
 440 660 l 1
 286 0 l 1
 210 0 l 1
 56 660 l 1
EndSplineSet
Validated: 1
EndChar

StartChar: W
Encoding: 87 87 57
Width: 500
VWidth: 0
Flags: W
HStem: 0 21G<103.697 185.851 314.149 396.303> 640 20G<-2 81.3103 209.149 290.851 431.688 502>
DStem2: 78 660 -2 660 0.162944 -0.986635<0 440.918> 150 225 183 0 0.141126 0.989992<0 256.661> 288 660 250 470 0.141131 -0.989991<182.735 481.823> 356 183 393 0 0.162944 0.986635<0 483.498>
LayerCount: 2
Back
Fore
SplineSet
288 660 m 1
 356 183 l 1
 435 660 l 1
 502 660 l 1
 393 0 l 1
 317 0 l 1
 250 470 l 1
 183 0 l 1
 107 0 l 1
 -2 660 l 1
 78 660 l 1
 150 225 l 1
 212 660 l 1
 288 660 l 1
EndSplineSet
Validated: 1
EndChar

StartChar: X
Encoding: 88 88 58
Width: 503
VWidth: 0
Flags: W
HStem: 0 21G<54 147.461 356.539 449> 640 20G<54 147.461 356.539 449>
DStem2: 138 660 54 660 0.42738 -0.904072<0 266.603 427.528 694.13> 54 0 138 0 0.42738 0.904072<35.8999 302.503 463.427 730.03>
LayerCount: 2
Back
Fore
SplineSet
54 660 m 1
 138 660 l 1
 252 419 l 1
 366 660 l 1
 449 660 l 1
 294 330 l 1
 449 0 l 1
 366 0 l 1
 252 241 l 1
 138 0 l 1
 54 0 l 1
 210 330 l 1
 54 660 l 1
EndSplineSet
Validated: 1
EndChar

StartChar: Y
Encoding: 89 89 59
Width: 496
VWidth: 0
Flags: W
HStem: 0 21G<206 286> 640 20G<52 143.862 358.931 444>
VStem: 206 80<0 270>
DStem2: 136 660 52 660 0.367275 -0.930112<0 311.602> 250 370 286 270 0.375484 0.926829<0 312.712>
LayerCount: 2
Back
Fore
SplineSet
206 270 m 1
 52 660 l 1
 136 660 l 1
 250 370 l 1
 367 660 l 1
 444 660 l 1
 286 270 l 1
 286 0 l 1
 206 0 l 1
 206 270 l 1
EndSplineSet
Validated: 1
EndChar

StartChar: Z
Encoding: 90 90 60
Width: 500
VWidth: 0
Flags: W
HStem: 0 80<160 440> 580 80<60 340>
DStem2: 60 72 160 80 0.482713 0.875779<55.2775 580.055>
LayerCount: 2
Back
Fore
SplineSet
60 580 m 1
 60 660 l 1
 440 660 l 1
 440 588 l 1
 160 80 l 1
 440 80 l 1
 440 0 l 1
 60 0 l 1
 60 72 l 1
 340 580 l 1
 60 580 l 1
EndSplineSet
Validated: 1
EndChar

StartChar: bracketleft
Encoding: 91 91 61
Width: 500
VWidth: 0
Flags: W
HStem: -72 84<228 348> 648 84<228 348>
VStem: 152 196<-72 12 648 732> 152 76<12 648>
LayerCount: 2
Back
Fore
SplineSet
348 732 m 1xe0
 348 648 l 1xe0
 228 648 l 1
 228 12 l 1xd0
 348 12 l 1
 348 -72 l 1
 152 -72 l 1
 152 732 l 1
 348 732 l 1xe0
EndSplineSet
Validated: 1
EndChar

StartChar: backslash
Encoding: 92 92 62
Width: 503
VWidth: 0
Flags: W
HStem: 0 21G<356.545 449> 640 20G<54 147.424>
DStem2: 138 660 54 660 0.42738 -0.904072<0 694.13>
LayerCount: 2
Back
Fore
SplineSet
449 0 m 1
 366 0 l 1
 54 660 l 1
 138 660 l 1
 449 0 l 1
EndSplineSet
Validated: 1
EndChar

StartChar: bracketright
Encoding: 93 93 63
Width: 500
VWidth: 0
Flags: W
HStem: -72 84<152 272> 648 84<152 272>
VStem: 152 196<-72 12 648 732> 272 76<12 648>
LayerCount: 2
Back
Fore
SplineSet
152 732 m 1xe0
 348 732 l 1
 348 -72 l 1
 152 -72 l 1
 152 12 l 1xe0
 272 12 l 1
 272 648 l 1xd0
 152 648 l 1
 152 732 l 1xe0
EndSplineSet
Validated: 1
EndChar

StartChar: asciicircum
Encoding: 94 94 64
Width: 500
VWidth: 0
Flags: W
HStem: 473 190
DStem2: 56 535 95 473 0.83205 0.5547<0 179.168> 248 663 246 573 0.837271 -0.546789<47.5365 231.155>
LayerCount: 2
Back
Fore
SplineSet
248 663 m 1
 444 535 l 1
 400 473 l 1
 246 573 l 1
 95 473 l 1
 56 535 l 1
 248 663 l 1
EndSplineSet
Validated: 1
EndChar

StartChar: underscore
Encoding: 95 95 65
Width: 500
VWidth: 0
Flags: W
HStem: 0 80<62 438>
LayerCount: 2
Back
Fore
SplineSet
62 0 m 1
 62 80 l 1
 438 80 l 1
 438 0 l 1
 62 0 l 1
EndSplineSet
Validated: 1
EndChar

StartChar: grave
Encoding: 96 96 66
Width: 500
VWidth: 0
Flags: W
HStem: 470 194
VStem: 130 240
DStem2: 174 664 130 602 0.835869 -0.548929<0 234.642>
LayerCount: 2
Back
Fore
SplineSet
174 664 m 1
 370 535 l 1
 331 470 l 1
 130 602 l 1
 174 664 l 1
EndSplineSet
Validated: 1
EndChar

StartChar: b
Encoding: 98 98 67
Width: 500
VWidth: 0
Flags: W
HStem: -5 80<172.09 324.577> 400 80<172.351 327.649> 640 20G<62 138>
VStem: 62 76<0 27 111.241 364.289 455 660> 362 76<113.562 362.388>
LayerCount: 2
Back
Fore
SplineSet
438 184 m 2
 438 85 371 -5 280 -5 c 0
 220 -5 l 0
 190 -5 160 8 138 27 c 1
 138 0 l 1
 62 0 l 1
 62 660 l 1
 138 660 l 1
 138 455 l 1
 164 473 190 480 220 480 c 0
 280 480 l 0
 371 480 438 395 438 296 c 0
 438 184 l 2
138 296 m 2
 138 190 l 0
 138 128 172 75 220 75 c 0
 280 75 l 0
 322 75 362 126 362 184 c 0
 362 296 l 0
 362 354 322 400 280 400 c 0
 220 400 l 0
 178 400 138 354 138 296 c 2
EndSplineSet
Validated: 1
EndChar

StartChar: c
Encoding: 99 99 68
Width: 498
VWidth: 0
Flags: W
HStem: 0 80<171.351 323.002> 400 80<171.351 323.416>
VStem: 61 76<117.612 362.388> 358 79<118.746 166 314 360.883>
LayerCount: 2
Back
Fore
SplineSet
437 314 m 1
 358 314 l 1
 348 362 313 400 279 400 c 2
 219 400 l 2
 177 400 137 354 137 296 c 2
 137 184 l 2
 137 126 177 80 219 80 c 2
 279 80 l 2
 313 80 348 118 358 166 c 1
 384 166 411 166 437 166 c 1
 425 80 361 0 279 0 c 2
 219 0 l 2
 128 0 61 85 61 184 c 2
 61 296 l 2
 61 395 128 480 219 480 c 2
 279 480 l 2
 362 480 426 399 437 314 c 1
EndSplineSet
Validated: 1
EndChar

StartChar: d
Encoding: 100 100 69
Width: 500
VWidth: 0
Flags: W
HStem: -5 80<175.423 328.048> 400 80<172.351 327.649> 640 20G<362 438>
VStem: 62 76<113.562 362.388> 362 76<0 27 111.241 364.289 455 660>
LayerCount: 2
Back
Fore
SplineSet
62 184 m 2
 62 296 l 0
 62 395 129 480 220 480 c 0
 280 480 l 0
 310 480 339 470 362 455 c 1
 362 660 l 1
 438 660 l 1
 438 0 l 1
 362 0 l 1
 362 27 l 1
 338 6 309 -5 280 -5 c 0
 220 -5 l 0
 129 -5 62 85 62 184 c 2
362 296 m 2
 362 354 322 400 280 400 c 0
 220 400 l 0
 178 400 138 354 138 296 c 0
 138 184 l 0
 138 126 178 75 220 75 c 0
 280 75 l 0
 328 75 362 128 362 190 c 0
 362 296 l 2
EndSplineSet
Validated: 1
EndChar

StartChar: e
Encoding: 101 101 70
Width: 499
VWidth: 0
Flags: W
HStem: 0 80<169.256 321> 224 84<140 356> 400 80<170.125 325.633>
VStem: 60 76<113.837 224 308 362.388> 356 84<115.486 162 308 368.26>
LayerCount: 2
Back
Fore
SplineSet
356 308 m 1
 352 363 316 400 278 400 c 2
 218 400 l 2
 176 400 144 360 140 308 c 1
 356 308 l 1
440 162 m 1
 425 77 357 0 278 0 c 2
 218 0 l 2
 126 0 60 85 60 184 c 2
 60 296 l 2
 60 395 126 480 218 480 c 2
 278 480 l 2
 368 480 438 395 438 292 c 2
 438 224 l 1
 136 224 l 1
 136 180 l 2
 136 123 176 80 218 80 c 2
 278 80 l 2
 314 80 346 118 356 162 c 1
 440 162 l 1
EndSplineSet
Validated: 1
EndChar

StartChar: f
Encoding: 102 102 71
Width: 498
VWidth: 0
Flags: W
HStem: 0 21G<90 168> 344 84<30 90 168 348> 580 80<200.766 352.723>
VStem: 90 78<0 344 428 542.388> 388 80<494 540.883>
LayerCount: 2
Back
Fore
SplineSet
90 476 m 1
 92 575 158 660 249 660 c 2
 309 660 l 2
 390 660 456 579 468 494 c 1
 388 494 l 0
 378 542 343 580 309 580 c 2
 249 580 l 2
 207 580 170 536 168 476 c 1
 168 428 l 1
 348 428 l 1
 348 344 l 1
 168 344 l 1
 168 0 l 1
 90 0 l 1
 90 344 l 1
 30 344 l 1
 30 428 l 1
 90 428 l 1
 90 476 l 1
EndSplineSet
Validated: 1
EndChar

StartChar: g
Encoding: 103 103 72
Width: 500
VWidth: 0
Flags: W
HStem: -268 80<173.33 327.887> 0 80<173.351 328.649> 400 80<173.351 328.649>
VStem: 63 76<-150.984 -94 117.612 362.388> 363 76<-149.005 25 115.711 364.289 455 480>
LayerCount: 2
Back
Fore
SplineSet
143 -94 m 1
 143 -146 178 -188 221 -188 c 2
 281 -188 l 2
 326 -188 363 -136 363 -72 c 2
 363 25 l 1
 337 7 311 0 281 0 c 2
 221 0 l 2
 130 0 63 85 63 184 c 2
 63 296 l 2
 63 395 130 480 221 480 c 2
 281 480 l 2
 311 480 340 470 363 455 c 1
 363 480 l 1
 439 480 l 1
 439 -80 l 2
 439 -184 368 -268 281 -268 c 2
 221 -268 l 2
 139 -268 73 -183 61 -94 c 1
 143 -94 l 1
139 184 m 2
 139 126 179 80 221 80 c 2
 281 80 l 2
 323 80 363 126 363 184 c 2
 363 296 l 2
 363 354 323 400 281 400 c 2
 221 400 l 2
 179 400 139 354 139 296 c 2
 139 184 l 2
EndSplineSet
Validated: 1
EndChar

StartChar: h
Encoding: 104 104 73
Width: 500
VWidth: 0
Flags: W
HStem: 0 21G<62 138 362 438> 400 80<172.351 327.649> 640 20G<62 138>
VStem: 62 76<0 364.289 455 660> 362 76<0 362.388>
LayerCount: 2
Back
Fore
SplineSet
438 0 m 1
 362 0 l 1
 362 296 l 0
 362 354 322 400 280 400 c 0
 220 400 l 0
 178 400 138 354 138 296 c 0
 138 0 l 1
 62 0 l 1
 62 660 l 1
 138 660 l 1
 138 455 l 1
 164 473 190 480 220 480 c 0
 280 480 l 0
 371 480 438 395 438 296 c 0
 438 0 l 1
EndSplineSet
Validated: 1
EndChar

StartChar: i
Encoding: 105 105 74
Width: 500
VWidth: 0
Flags: W
HStem: 0 80<62 212 288 438> 400 80<62 212> 532 148<201.495 298.505>
VStem: 178 144<553.375 656.625> 212 76<80 400>
LayerCount: 2
Back
Fore
SplineSet
250 680 m 0xf0
 290 680 322 643 322 604 c 0
 322 565 289 532 250 532 c 0
 211 532 178 565 178 604 c 0
 178 643 210 680 250 680 c 0xf0
62 480 m 1
 288 480 l 1
 288 80 l 1
 438 80 l 1
 438 0 l 1
 62 0 l 1
 62 80 l 1
 212 80 l 1
 212 400 l 1xe8
 62 400 l 1
 62 480 l 1
EndSplineSet
Validated: 1
EndChar

StartChar: j
Encoding: 106 106 75
Width: 499
VWidth: 0
Flags: W
HStem: -268 80<153.141 306.812> 400 80<193 343> 532 148<333.042 431.467>
VStem: 42 84<-159.701 -98> 309 148<554.62 655.287> 343 80<-151.635 400>
LayerCount: 2
Back
Fore
SplineSet
382 680 m 0xf8
 421 680 457 643 457 604 c 0
 457 565 421 532 382 532 c 0
 343 532 309 565 309 604 c 0
 309 643 342 680 382 680 c 0xf8
126 -98 m 0
 126 -148 160 -188 202 -188 c 2
 262 -188 l 2
 304 -188 343 -142 343 -80 c 2
 343 400 l 1
 193 400 l 1
 193 480 l 1
 423 480 l 1
 423 -80 l 2xf4
 423 -183 353 -268 262 -268 c 2
 202 -268 l 2
 129 -268 42 -200 42 -98 c 0
 126 -98 l 0
EndSplineSet
Validated: 1
EndChar

StartChar: k
Encoding: 107 107 76
Width: 501
VWidth: 0
Flags: W
HStem: 0 21G<48 126 326.6 444> 460 20G<320.893 452> 640 20G<48 126>
VStem: 48 78<0 137 256 660>
DStem2: 126 256 188 200 0.688916 0.724841<0 2.12169 83.4666 309.792> 244 259 188 200 0.611187 -0.791487<12.4713 264.891>
LayerCount: 2
Back
Fore
SplineSet
444 0 m 1
 342 0 l 1
 188 200 l 1
 126 137 l 1
 126 0 l 1
 48 0 l 1
 48 660 l 1
 126 660 l 1
 126 256 l 1
 340 480 l 1
 452 480 l 1
 244 259 l 1
 444 0 l 1
EndSplineSet
Validated: 1
EndChar

StartChar: l
Encoding: 108 108 77
Width: 500
VWidth: 0
Flags: W
HStem: 0 80<62 212 288 438> 580 80<62 212>
VStem: 212 76<80 580>
LayerCount: 2
Back
Fore
SplineSet
62 660 m 1
 288 660 l 1
 288 80 l 1
 438 80 l 1
 438 0 l 1
 62 0 l 1
 62 80 l 1
 212 80 l 1
 212 580 l 1
 62 580 l 1
 62 660 l 1
EndSplineSet
Validated: 1
EndChar

StartChar: m
Encoding: 109 109 78
Width: 500
VWidth: 0
Flags: W
HStem: 0 21G<42 118 212 288 382 458> 400 80<127.045 204.81 297.838 375.752>
VStem: 42 76<0 390.723 467 480> 212 76<0 389.134> 382 76<0 394.809>
CounterMasks: 1 38
LayerCount: 2
Back
Fore
SplineSet
118 467 m 1
 134 476 153 480 170 480 c 0
 204 480 233 464 253 443 c 1
 280 467 308 480 345 480 c 0
 414 480 458 422 458 356 c 0
 458 0 l 1
 382 0 l 1
 382 352 l 0
 382 381 365 400 345 400 c 0
 313 400 288 377 288 352 c 0
 288 0 l 1
 212 0 l 1
 212 352 l 0
 212 381 192 400 170 400 c 0
 141 400 118 377 118 352 c 0
 118 0 l 1
 42 0 l 1
 42 480 l 1
 118 480 l 1
 118 467 l 1
EndSplineSet
Validated: 1
EndChar

StartChar: n
Encoding: 110 110 79
Width: 500
VWidth: 0
Flags: W
HStem: 0 21G<62 138 362 438> 405 80<173.17 324.577>
VStem: 62 76<0 367.251 451 480> 362 76<0 367.251>
LayerCount: 2
Back
Fore
SplineSet
438 0 m 1
 362 0 l 1
 362 296 l 0
 362 356 322 405 280 405 c 0
 220 405 l 0
 178 405 138 356 138 296 c 0
 138 0 l 1
 62 0 l 1
 62 480 l 1
 138 480 l 1
 138 451 l 1
 161 472 192 485 220 485 c 0
 280 485 l 0
 371 485 438 395 438 296 c 0
 438 0 l 1
EndSplineSet
Validated: 1
EndChar

StartChar: o
Encoding: 111 111 80
Width: 500
VWidth: 0
Flags: W
HStem: 0 80<172.351 327.649> 400 80<172.351 327.649>
VStem: 62 76<117.612 362.388> 362 76<117.612 362.388>
LayerCount: 2
Back
Fore
SplineSet
138 184 m 2
 138 126 178 80 220 80 c 0
 280 80 l 0
 322 80 362 126 362 184 c 0
 362 296 l 0
 362 354 322 400 280 400 c 0
 220 400 l 0
 178 400 138 354 138 296 c 0
 138 184 l 2
438 184 m 2
 438 85 371 0 280 0 c 0
 220 0 l 0
 129 0 62 85 62 184 c 0
 62 296 l 0
 62 395 129 480 220 480 c 0
 280 480 l 0
 371 480 438 395 438 296 c 0
 438 184 l 2
EndSplineSet
Validated: 1
EndChar

StartChar: p
Encoding: 112 112 81
Width: 500
VWidth: 0
Flags: W
HStem: 0 80<172.351 327.649> 405 80<171.952 324.577>
VStem: 62 76<-262 25 115.711 368.759 453 480> 362 76<117.612 366.438>
LayerCount: 2
Back
Fore
SplineSet
438 296 m 2
 438 184 l 0
 438 85 371 0 280 0 c 0
 220 0 l 0
 190 0 161 10 138 25 c 1
 138 -262 l 1
 62 -262 l 1
 62 480 l 1
 138 480 l 1
 138 453 l 1
 162 474 191 485 220 485 c 0
 280 485 l 0
 371 485 438 395 438 296 c 2
138 184 m 2
 138 126 178 80 220 80 c 0
 280 80 l 0
 322 80 362 126 362 184 c 0
 362 296 l 0
 362 354 322 405 280 405 c 0
 220 405 l 0
 172 405 138 352 138 290 c 0
 138 184 l 2
EndSplineSet
Validated: 1
EndChar

StartChar: q
Encoding: 113 113 82
Width: 500
VWidth: 0
Flags: W
HStem: 0 80<172.351 327.649> 405 80<175.423 327.91>
VStem: 62 76<117.612 366.438> 362 76<-262 25 115.711 368.759 453 480>
LayerCount: 2
Back
Fore
SplineSet
62 296 m 2
 62 395 129 485 220 485 c 0
 280 485 l 0
 310 485 340 472 362 453 c 1
 362 480 l 1
 438 480 l 1
 438 -262 l 1
 362 -262 l 1
 362 25 l 1
 336 7 310 0 280 0 c 0
 220 0 l 0
 129 0 62 85 62 184 c 0
 62 296 l 2
362 184 m 2
 362 290 l 0
 362 352 328 405 280 405 c 0
 220 405 l 0
 178 405 138 354 138 296 c 0
 138 184 l 0
 138 126 178 80 220 80 c 0
 280 80 l 0
 322 80 362 126 362 184 c 2
EndSplineSet
Validated: 1
EndChar

StartChar: r
Encoding: 114 114 83
Width: 499
VWidth: 0
Flags: W
HStem: 0 21G<62 138> 405 80<196.853 326.783>
VStem: 62 76<0 335.273 425 480>
LayerCount: 2
Back
Fore
SplineSet
438 344 m 1
 408 344 378 344 348 344 c 1
 334 382 318 405 294 405 c 2
 250 405 l 2
 194 405 138 338 138 240 c 2
 138 0 l 1
 62 0 l 1
 62 480 l 1
 138 480 l 1
 138 425 l 1
 160 453 198 485 250 485 c 2
 294 485 l 2
 368 485 416 415 438 344 c 1
EndSplineSet
Validated: 1
EndChar

StartChar: s
Encoding: 115 115 84
Width: 500
VWidth: 0
Flags: W
HStem: 0 80<160.745 337.08> 197 84<171.408 344.016> 400 80<174.805 337.646>
VStem: 56 87<99.4397 134> 74 80<296.103 378.088> 356 79<342 381.415> 364 80<104.43 178.423>
LayerCount: 2
Back
Fore
SplineSet
56 134 m 1xf2
 143 134 l 1
 148 100 184 80 210 80 c 2
 257 80 l 2
 320 80 364 109 364 138 c 0xf2
 364 173 328 197 282 197 c 2
 222 197 l 2
 141 197 74 260 74 338 c 0
 74 417 147 480 237 480 c 2
 282 480 l 2
 352 480 428 414 435 342 c 1
 356 342 l 1
 348 385 311 400 282 400 c 2
 237 400 l 2
 189 400 154 370 154 340 c 0xec
 154 307 182 281 222 281 c 2
 282 281 l 2
 369 281 444 225 444 141 c 0
 444 62 358 0 257 0 c 2
 210 0 l 2
 140 0 64 66 56 134 c 1xf2
EndSplineSet
Validated: 1
EndChar

StartChar: t
Encoding: 116 116 85
Width: 498
VWidth: 0
Flags: W
HStem: 0 80<201.712 352.266> 400 80<30 90 168 348> 640 20G<90 168>
VStem: 90 78<115.711 400 480 660> 388 80<118.746 166>
LayerCount: 2
Back
Fore
SplineSet
168 184 m 2
 168 126 207 80 249 80 c 2
 309 80 l 2
 343 80 378 118 388 166 c 1
 468 166 l 0
 455 80 389 0 309 0 c 2
 249 0 l 2
 158 0 90 81 90 180 c 2
 90 400 l 1
 30 400 l 1
 30 480 l 1
 90 480 l 1
 90 660 l 1
 168 660 l 1
 168 480 l 1
 348 480 l 1
 348 400 l 1
 168 400 l 1
 168 184 l 2
EndSplineSet
Validated: 1
EndChar

StartChar: u
Encoding: 117 117 86
Width: 500
VWidth: 0
Flags: W
HStem: 0 80<172.351 327.649> 460 20G<62 138 362 438>
VStem: 62 76<117.612 480> 362 76<0 25 115.711 480>
LayerCount: 2
Back
Fore
SplineSet
362 480 m 1
 438 480 l 1
 438 0 l 1
 362 0 l 1
 362 25 l 1
 336 7 310 0 280 0 c 0
 220 0 l 0
 129 0 62 85 62 184 c 0
 62 480 l 1
 138 480 l 1
 138 184 l 0
 138 126 178 80 220 80 c 0
 280 80 l 0
 322 80 362 126 362 184 c 0
 362 480 l 1
EndSplineSet
Validated: 1
EndChar

StartChar: v
Encoding: 118 118 87
Width: 500
VWidth: 0
Flags: W
HStem: 0 21G<203.583 292.583> 460 20G<56 142.455 355.429 444>
DStem2: 136 480 56 480 0.305495 -0.952194<0 364.627> 248 133 286 0 0.312664 0.949864<0 365.246>
LayerCount: 2
Back
Fore
SplineSet
56 480 m 1
 136 480 l 1
 248 133 l 1
 362 480 l 1
 444 480 l 1
 286 0 l 1
 210 0 l 1
 56 480 l 1
EndSplineSet
Validated: 1
EndChar

StartChar: w
Encoding: 119 119 88
Width: 496
VWidth: 0
Flags: W
HStem: 0 21G<100.458 185.268 310.732 395.542> 460 20G<-4 80.5695 204.762 290.29 421.457 500>
DStem2: 76 480 -4 480 0.221445 -0.975173<0 309.782> 145 178 248 314 0.208678 0.977984<0 154.5> 286 480 248 314 0.20974 -0.977757<154.338 324.211> 354 163 391 0 0.221445 0.975173<0 325.074>
LayerCount: 2
Back
Fore
SplineSet
286 480 m 1
 354 163 l 1
 426 480 l 1
 500 480 l 1
 391 0 l 1
 315 0 l 1
 248 314 l 1
 181 0 l 1
 105 0 l 1
 -4 480 l 1
 76 480 l 1
 145 178 l 1
 209 480 l 1
 286 480 l 1
EndSplineSet
Validated: 1
EndChar

StartChar: y
Encoding: 121 121 89
Width: 498
VWidth: 0
Flags: W
HStem: -208 80<63 165.647> 460 20G<55 146.091 357.455 443>
DStem2: 139 480 55 480 0.335544 -0.942024<0 350.127> 183 -76 259 -83 0.310651 0.950524<-55.1863 109.106 237.496 584.719>
LayerCount: 2
Back
Fore
SplineSet
63 -128 m 1
 131 -128 l 0
 146 -128 172 -108 183 -76 c 0
 216 28 l 1
 55 480 l 1
 139 480 l 1
 256 150 l 1
 364 480 l 1
 443 480 l 1
 259 -83 l 0
 236 -154 191 -208 131 -208 c 0
 63 -208 l 1
 63 -128 l 1
EndSplineSet
Validated: 1
EndChar

StartChar: z
Encoding: 122 122 90
Width: 501
VWidth: 0
Flags: W
HStem: 0 80<167 441> 400 80<60 334>
DStem2: 60 72 167 80 0.641105 0.767454<74.7378 427.387>
LayerCount: 2
Back
Fore
SplineSet
60 400 m 1
 60 480 l 1
 441 480 l 1
 441 408 l 1
 167 80 l 1
 441 80 l 1
 441 0 l 1
 60 0 l 1
 60 72 l 1
 334 400 l 1
 60 400 l 1
EndSplineSet
Validated: 1
EndChar

StartChar: braceleft
Encoding: 123 123 91
Width: 500
VWidth: 0
Flags: W
HStem: -68 80<328.211 424> 280 80<76 180.625> 652 80<328.211 424>
VStem: 226 78<37.3706 222.157 421.64 627.1>
LayerCount: 2
Back
Fore
SplineSet
76 360 m 1
 145 360 l 0
 183 360 226 433 226 536 c 0
 226 639 281 732 355 732 c 0
 424 732 l 1
 424 652 l 1
 355 652 l 0
 334 652 305 606 304 536 c 0
 303 445 275 368 233 322 c 1
 279 277 303 201 304 118 c 0
 305 55 334 12 355 12 c 0
 424 12 l 1
 424 -68 l 1
 355 -68 l 0
 281 -68 226 17 226 116 c 0
 226 211 183 280 145 280 c 0
 76 280 l 1
 76 360 l 1
EndSplineSet
Validated: 1
EndChar

StartChar: bar
Encoding: 124 124 92
Width: 500
VWidth: 0
Flags: W
HStem: 0 21G<212 288> 640 20G<212 288>
VStem: 212 76<0 660>
LayerCount: 2
Back
Fore
SplineSet
212 660 m 1
 288 660 l 1
 288 0 l 1
 212 0 l 1
 212 660 l 1
EndSplineSet
Validated: 1
EndChar

StartChar: braceright
Encoding: 125 125 93
Width: 500
VWidth: 0
Flags: W
HStem: -68 80<76 171.789> 280 80<319.375 424> 652 80<76 171.789>
VStem: 196 78<37.3706 221.809 421.64 627.1>
LayerCount: 2
Back
Fore
SplineSet
424 360 m 1
 424 280 l 1
 355 280 l 0
 317 280 274 211 274 116 c 0
 274 17 219 -68 145 -68 c 0
 76 -68 l 1
 76 12 l 1
 145 12 l 0
 166 12 195 54 196 117 c 0
 197 204 225 277 267 320 c 1
 221 368 197 445 196 536 c 0
 195 606 166 652 145 652 c 0
 76 652 l 1
 76 732 l 1
 145 732 l 0
 219 732 274 639 274 536 c 0
 274 433 317 360 355 360 c 0
 424 360 l 1
EndSplineSet
Validated: 1
EndChar

StartChar: asciitilde
Encoding: 126 126 94
Width: 498
VWidth: 0
Flags: W
HStem: 191 80<289.11 363.893> 280 80<128.476 203.932>
LayerCount: 2
Back
Fore
SplineSet
412 371 m 1
 484 337 l 1
 454 256 401 191 321 191 c 0
 240 191 212 280 161 280 c 0
 123 280 89 189 87 182 c 1
 14 215 l 1
 44 295 84 360 170 360 c 0
 258 360 280 271 330 271 c 0
 367 271 408 361 412 371 c 1
EndSplineSet
Validated: 1
EndChar
